<svg version="1" xmlns="http://www.w3.org/2000/svg" width="933.333" height="933.333" viewBox="0 0 700.000000 700.000000"><path d="M332.5 41.6c-2.2.2-9.2.9-15.5 1.5-66.2 6.3-131.3 36.7-180.8 84.4-52.2 50.3-82.8 111.4-92.8 185-2.4 18-2.4 56.9 0 75C48.9 428.3 60.7 464.9 79 498c46.1 83.5 127 141 220.4 156.5 80.2 13.3 161.3-5.2 228.1-52 67-46.9 113.1-119.7 126.9-200.5 4.5-26.3 5.5-65 2.2-89.5-9.7-72.7-40.7-134.7-92.3-184.5-48.9-47.3-108-75.5-176.8-84.5-11.6-1.5-46.8-2.7-55-1.9zm39 113.4c76.3 8.8 140.2 60.2 164.4 132.6 12.6 37.7 13.4 80.5 2.2 118.1-17.3 57.7-60 104.4-116.1 126.7-100.2 39.7-214.6-9.9-254.4-110.4-14.7-37.3-17.6-80-8-119 19.6-79.3 86.7-138.5 167.7-147.9 10.4-1.2 33.8-1.2 44.2-.1z"/><path d="M336 237c-33.8 4.7-62 22.2-80.5 50-27 40.5-25.4 93.5 4.1 132.1 5.6 7.3 19.7 20.5 27 25.4 12.4 8.2 28.1 14.6 43.4 17.6 8.4 1.6 31.6 1.6 40 0 15.6-3.1 31.3-9.5 44.1-18.1 8.1-5.5 24.3-21.6 29.7-29.6 30.4-45.2 25.5-104.2-11.7-142.8-16.1-16.7-33.7-26.8-55.6-32.2-11.3-2.7-30-3.8-40.5-2.4z"/></svg>